<mxfile host="app.diagrams.net" modified="2023-10-16T15:55:02.218Z" agent="Mozilla/5.0 (X11; Linux x86_64; rv:109.0) Gecko/20100101 Firefox/114.0" version="22.0.4" etag="w6R9r_KaSjHqHLRkkyB4" type="github">
  <diagram name="PÃ¡gina-1" id="5l4QbnVMC6A0-uHD1jhr">
    <mxGraphModel>
      <root>
        <mxCell id="0" />
        <mxCell id="1" parent="0" />
      </root>
    </mxGraphModel>
  </diagram>
</mxfile>
